<?xml version="1.0" encoding="UTF-8"?>
<svg width="124px" height="40px" viewBox="0 0 124 40" version="1.1" xmlns="http://www.w3.org/2000/svg">
    <g stroke="none" fill="none">
        <path d="M37.33,15.21 L43.92,18.91 L37.33,22.61 L30.75,18.91 L37.33,15.21 Z" fill="#F82B60"></path>
        <path d="M29.87,19.75 L36.45,23.45 L29.87,27.15 L23.28,23.45 L29.87,19.75 Z" fill="#FD7438"></path>
        <path d="M44.8,19.75 L51.39,23.45 L44.8,27.15 L38.22,23.45 L44.8,19.75 Z" fill="#FFCE2E"></path>
        <path d="M37.33,24.29 L43.92,27.99 L37.33,31.7 L30.75,27.99 L37.33,24.29 Z" fill="#36C5F0"></path>
        <path d="M56.6,17.56 C59.22,17.56 61.25,18.81 62.53,20.81 L62.53,20.81 L59.69,22.56 C58.93,21.25 57.95,20.68 56.6,20.68 C54.54,20.68 53.04,22.34 53.04,24.62 C53.04,26.9 54.54,28.56 56.6,28.56 C57.95,28.56 59,27.88 59.69,26.68 L59.69,26.68 L62.53,28.44 C61.22,30.47 59.22,31.69 56.6,31.69 C52.35,31.69 49.6,28.78 49.6,24.62 C49.6,20.47 52.35,17.56 56.6,17.56 Z M64.83,17.87 L68.08,17.87 L68.08,24.03 L73.27,17.87 L77.23,17.87 L71.3,24.59 L77.36,31.37 L73.33,31.37 L68.08,24.62 L68.08,31.37 L64.83,31.37 L64.83,17.87 Z M82.25,17.56 C84.75,17.56 86.03,19 86.03,21.22 L86.03,21.22 L86.03,31.37 L82.88,31.37 L82.88,29.87 C82.04,30.9 80.82,31.69 79.19,31.69 C76.97,31.69 75.16,30.31 75.16,27.88 C75.16,25.46 76.97,24.06 79.19,24.06 C80.73,24.06 81.91,24.68 82.78,25.53 L82.78,25.53 L82.78,21.19 C82.78,20.06 81.98,19.47 80.79,19.47 C79.48,19.47 78.81,20.19 78.72,21.19 L78.72,21.19 L75.66,20.56 C75.88,18.69 77.32,17.56 82.25,17.56 Z M78.66,27.81 C78.66,28.75 79.51,29.43 80.69,29.43 C82.07,29.43 82.91,28.37 82.91,27.12 C82.91,25.87 82.07,24.81 80.69,24.81 C79.51,24.81 78.66,25.5 78.66,26.43 L78.66,26.43 L78.66,27.81 Z M88.86,17.87 L92.13,17.87 L92.13,19.31 C92.72,18.34 93.82,17.56 95.38,17.56 C98.85,17.56 100.57,20.22 100.57,24.56 C100.57,28.9 98.85,31.68 95.38,31.68 C93.88,31.68 92.72,31 92.13,30.12 L92.13,30.12 L92.13,36 L88.86,36 L88.86,17.87 Z M94.25,28.37 C95.91,28.37 97.16,27.06 97.16,24.62 C97.16,22.19 95.91,20.87 94.25,20.87 C92.72,20.87 91.32,22.12 91.32,24.62 C91.32,27.12 92.72,28.37 94.25,28.37 Z M106.5,17.56 C110.72,17.56 113.5,20.47 113.5,24.62 C113.5,28.78 110.72,31.69 106.5,31.69 C102.25,31.69 99.5,28.78 99.5,24.62 C99.5,20.47 102.25,17.56 106.5,17.56 Z M106.5,20.68 C104.44,20.68 102.94,22.34 102.94,24.62 C102.94,26.9 104.44,28.56 106.5,28.56 C108.56,28.56 110.06,26.9 110.06,24.62 C110.06,22.34 108.56,20.68 106.5,20.68 Z M122.03,17.56 C123.78,17.56 124,18.5 124,19.28 L124,19.28 L124,31.37 L120.72,31.37 L120.72,19.72 C120.72,19.56 120.59,19.47 120.47,19.47 C120.38,19.47 120.31,19.5 120.22,19.59 L120.22,19.59 L117.75,22.28 L115.13,19.59 C115.03,19.5 114.94,19.47 114.84,19.47 C114.72,19.47 114.59,19.56 114.59,19.72 L114.59,19.72 L114.59,31.37 L111.31,31.37 L111.31,19.28 C111.31,18.5 111.53,17.56 113.28,17.56 C114.25,17.56 115.06,18.06 115.97,19 L115.97,19 L117.75,20.87 L119.53,19 C120.38,18.06 121.13,17.56 122.03,17.56 Z" fill="#121212"></path>
    </g>
</svg>